<svg width="216" height="56" viewBox="0 0 216 56" fill="none" xmlns="http://www.w3.org/2000/svg">
<g id="ScaffPlan Logo" clip-path="url(#clip0_55_64146)">
<g id="Designer">
<g id="Group">
<g id="Group_2">
<path id="Vector" d="M187.362 49.1361C191.935 49.1361 196.162 50.6363 199.582 53.1689C200.816 52.5721 201.993 51.8784 203.115 51.1122C198.864 47.5068 193.363 45.321 187.362 45.321C181.361 45.321 175.828 47.5149 171.57 51.1445C172.691 51.9107 173.876 52.5963 175.102 53.1931C178.53 50.6444 182.773 49.128 187.354 49.128L187.362 49.1361Z" fill="#005E9E"/>
<path id="Vector_2" d="M200.703 37.828C204.26 39.3202 207.51 41.3931 210.349 43.9257C211.229 42.6594 212.003 41.3205 212.664 39.9171C208.986 38.7233 205.575 36.9247 202.55 34.634C202.05 35.7713 201.437 36.836 200.711 37.828H200.703Z" fill="#005E9E"/>
<path id="Vector_3" d="M159.923 22.1967C165.206 19.2124 168.779 13.5422 168.779 7.05742C168.779 7.04129 168.779 7.03322 168.779 7.01709C164.359 10.9289 161.181 16.2039 159.923 22.1967Z" fill="#005E9E"/>
<path id="Vector_4" d="M169.005 49.1765C172.199 46.3212 176.054 44.1919 180.321 43.0627C178.829 42.3691 177.458 41.4576 176.248 40.3768C172.546 41.7883 169.174 43.8693 166.295 46.4906C167.134 47.4504 168.037 48.3457 169.005 49.1845V49.1765Z" fill="#005E9E"/>
<path id="Vector_5" d="M178.958 7.05741C178.958 9.54164 178.627 11.9533 178.006 14.2439C179.329 13.3406 180.797 12.6308 182.353 12.1388C182.628 10.4853 182.765 8.78347 182.765 7.04935C182.765 4.79902 182.523 2.60516 182.071 0.483887C180.805 0.725857 179.579 1.04848 178.377 1.45177C178.748 3.25848 178.95 5.13778 178.95 7.04935L178.958 7.05741Z" fill="#005E9E"/>
<path id="Vector_6" d="M171.965 7.05753C171.965 15.5668 166.771 22.8824 159.39 26.0038C159.342 26.6652 159.318 27.3266 159.318 27.996C159.318 28.6655 159.342 29.3914 159.399 30.077C168.924 26.762 175.78 17.6962 175.78 7.05753C175.78 5.55731 175.635 4.09742 175.377 2.6698C174.143 3.25053 172.957 3.92805 171.828 4.67815C171.916 5.46052 171.973 6.25096 171.973 7.05753H171.965Z" fill="#005E9E"/>
<path id="Vector_7" d="M215.245 25.9634C207.914 22.8178 202.768 15.5264 202.768 7.05748C202.768 6.26705 202.816 5.49274 202.905 4.73457C201.776 3.97639 200.59 3.29888 199.356 2.71008C199.098 4.12158 198.961 5.5734 198.961 7.05748C198.961 17.6638 205.776 26.7055 215.253 30.0527C215.302 29.3752 215.326 28.6896 215.326 28.004C215.326 27.3185 215.302 26.6409 215.253 25.9715L215.245 25.9634Z" fill="#005E9E"/>
<path id="Vector_8" d="M196.001 54.6288C193.452 53.1689 190.508 52.322 187.37 52.322C184.233 52.322 181.257 53.1689 178.708 54.6449C181.426 55.5241 184.321 56 187.33 56C190.338 56 193.274 55.516 196.009 54.6288H196.001Z" fill="#005E9E"/>
<path id="Vector_9" d="M170.771 26.641C167.73 29.6495 163.988 31.9563 159.826 33.2952C160.068 34.5615 160.391 35.7955 160.802 36.9893C164.585 35.7955 168.061 33.9082 171.086 31.4723C170.844 30.3512 170.723 29.1897 170.723 28.0041C170.723 27.5443 170.747 27.0927 170.779 26.641H170.771Z" fill="#005E9E"/>
<path id="Vector_10" d="M172.118 34.6904C169.085 36.965 165.674 38.7555 161.996 39.9493C162.665 41.3607 163.447 42.7077 164.327 43.9821C167.158 41.4414 170.408 39.3685 173.957 37.8683C173.231 36.8924 172.618 35.8277 172.118 34.6985V34.6904Z" fill="#005E9E"/>
<path id="Vector_11" d="M205.687 49.1361C206.647 48.2972 207.551 47.4019 208.389 46.4421C205.502 43.8288 202.131 41.7479 198.428 40.3525C197.219 41.4414 195.847 42.3528 194.363 43.0465C198.63 44.1676 202.493 46.2889 205.687 49.1361Z" fill="#005E9E"/>
<path id="Vector_12" d="M185.668 11.4694C186.209 11.4129 186.757 11.3887 187.314 11.3887C187.903 11.3887 188.483 11.421 189.056 11.4775C188.871 10.0256 188.774 8.54962 188.774 7.05747C188.774 4.67003 189.016 2.33905 189.484 0.0806568C188.766 0.024197 188.048 0 187.322 0C186.596 0 185.935 0.024197 185.241 0.0806568C185.709 2.33905 185.951 4.67003 185.951 7.05747C185.951 8.54962 185.854 10.0256 185.668 11.4694Z" fill="#005E9E"/>
<path id="Vector_13" d="M205.946 7.09778C205.962 13.5261 209.486 19.1479 214.705 22.1403C213.447 16.212 210.309 10.9854 205.946 7.09778Z" fill="#005E9E"/>
<path id="Vector_14" d="M192.379 12.1792C193.952 12.6793 195.42 13.4133 196.743 14.3247C196.105 12.0098 195.767 9.574 195.767 7.05751C195.767 5.14594 195.96 3.28277 196.331 1.48413C195.138 1.08084 193.903 0.750149 192.645 0.508179C192.194 2.62139 191.952 4.81525 191.952 7.05751C191.952 8.7997 192.097 10.5096 192.371 12.1792H192.379Z" fill="#005E9E"/>
<path id="Vector_15" d="M203.865 26.5442C203.905 27.0201 203.929 27.504 203.929 27.996C203.929 29.1655 203.808 30.3028 203.574 31.4078C206.591 33.8598 210.067 35.7633 213.85 36.965C214.253 35.7713 214.576 34.5373 214.818 33.271C210.64 31.9159 206.897 29.5849 203.857 26.5442H203.865Z" fill="#005E9E"/>
</g>
<g id="Group_3">
<path id="Vector_16" d="M91.792 28.0202C91.2678 28.0202 90.7354 28.0121 90.2112 28.0202C89.8079 28.0202 89.6143 27.9153 89.6224 27.4475C89.6546 26.1086 89.6546 24.7697 89.6224 23.4389C89.6143 22.9469 89.824 22.8259 90.2596 22.834C91.2436 22.8501 92.2195 22.8098 93.2035 22.842C94.4215 22.8904 95.4619 24.0357 95.5426 25.044C95.712 27.0926 94.4457 28.1976 92.6389 28.0202C92.3566 27.996 92.0663 28.0202 91.7759 28.0202H91.792Z" fill="#FDFDFD"/>
<g id="Group_4">
<g id="Group_5">
<path id="Vector_17" d="M145.703 16.4459H144.582V16.204H147.09V16.4459H145.961V19.5512H145.695V16.4459H145.703Z" fill="#574F56"/>
<path id="Vector_18" d="M146.155 19.7286H145.526V16.6234H144.404V16.0184H147.276V16.6234H146.155V19.7286Z" fill="#574F56"/>
</g>
<g id="Group_6">
<path id="Vector_19" d="M150.712 18.0107C150.712 17.3574 150.712 16.7282 150.728 16.3975H150.712C150.575 16.8492 149.897 18.4946 149.478 19.5512H149.228C148.905 18.7366 148.203 16.9057 148.05 16.3975H148.042C148.066 16.7766 148.074 17.559 148.074 18.1317V19.5512H147.816V16.212H148.203C148.663 17.3574 149.236 18.8576 149.365 19.2367H149.373C149.445 18.9947 150.115 17.3251 150.583 16.212H150.962V19.5512H150.704V18.0187L150.712 18.0107Z" fill="#574F56"/>
<path id="Vector_20" d="M151.155 19.7286H150.534V18.0106C150.534 17.8251 150.534 17.6235 150.534 17.4218C150.349 17.9058 150.115 18.4784 149.889 19.0188L149.607 19.7286H149.107L149.058 19.6157C148.857 19.0995 148.526 18.2284 148.26 17.5186C148.26 17.7283 148.26 17.938 148.26 18.1316V19.7367H147.639V16.0345H148.332L148.381 16.1475C148.72 16.9863 149.139 18.0752 149.381 18.7204C149.631 18.0832 150.083 16.9621 150.429 16.1475L150.478 16.0345H151.163V19.7367L151.155 19.7286Z" fill="#574F56"/>
</g>
</g>
<g id="Group_7">
<path id="Vector_21" d="M14.047 28.9316C13.1597 28.496 11.9983 28.0282 10.5787 27.5524C9.15109 27.0926 8.11062 26.6651 7.44117 26.2619C6.77172 25.8666 6.43296 25.3101 6.43296 24.6003C6.43296 23.9551 6.6346 23.455 7.02982 23.1082C7.42504 22.7614 7.94931 22.592 8.60262 22.592C9.35273 22.592 9.97379 22.7936 10.4577 23.205C10.9417 23.6163 11.1998 24.1728 11.2401 24.8826H17.0474C16.9425 22.8097 16.144 21.1966 14.6599 20.0352C13.1759 18.8737 11.2159 18.293 8.78814 18.293C6.36037 18.293 4.46493 18.8737 2.98085 20.0352C1.4887 21.1885 0.746654 22.7936 0.746654 24.8504C0.746654 26.2296 1.06928 27.3507 1.7226 28.2138C2.37592 29.0768 3.14216 29.722 4.04552 30.1576C4.94887 30.5931 6.11033 31.0367 7.52989 31.4723C8.5139 31.7627 9.27208 32.0288 9.80441 32.2547C10.3367 32.4886 10.7884 32.7789 11.1514 33.1338C11.5143 33.4887 11.6998 33.9404 11.6998 34.4888C11.6998 35.1341 11.4659 35.6422 11.0062 36.0133C10.5465 36.3762 9.91733 36.5617 9.11883 36.5617C8.32033 36.5617 7.7154 36.344 7.23146 35.9165C6.74752 35.489 6.46522 34.8599 6.38456 34.0452H0.682129C0.722457 35.489 1.12574 36.723 1.89198 37.7474C2.65822 38.7717 3.6745 39.546 4.95694 40.0703C6.23132 40.5946 7.67507 40.8527 9.28821 40.8527C10.9013 40.8527 12.3774 40.5462 13.5872 39.9412C14.8051 39.3363 15.7246 38.5217 16.3699 37.4893C17.0071 36.4649 17.3297 35.3196 17.3297 34.0694C17.3297 32.7547 17.0071 31.6739 16.3537 30.8351C15.7085 29.9963 14.9342 29.3591 14.047 28.9235V28.9316Z" fill="#574F56"/>
<path id="Vector_22" d="M27.8231 27.4556C29.2024 27.4556 30.138 28.125 30.6139 29.4639H36.3324C35.8727 27.3668 34.9048 25.7456 33.4288 24.6003C31.9528 23.4469 30.1138 22.8743 27.9199 22.8743C26.2019 22.8743 24.6775 23.2372 23.3548 23.9712C22.0239 24.7052 20.9915 25.7537 20.2495 27.1087C19.5074 28.4718 19.1364 30.0608 19.1364 31.8836C19.1364 33.7065 19.5074 35.2954 20.2495 36.6585C20.9915 38.0216 22.032 39.0701 23.3548 39.7961C24.6856 40.53 26.21 40.893 27.9199 40.893C30.0977 40.893 31.9286 40.3042 33.4127 39.1347C34.8967 37.9651 35.8727 36.352 36.3324 34.3033H30.6139C30.1299 35.6422 29.2024 36.3117 27.8231 36.3117C26.8391 36.3117 26.0568 35.9326 25.468 35.1664C24.8792 34.4001 24.5888 33.3113 24.5888 31.8836C24.5888 30.456 24.8792 29.3671 25.468 28.6009C26.0568 27.8347 26.8391 27.4556 27.8231 27.4556Z" fill="#574F56"/>
<path id="Vector_23" d="M50.9716 25.6005C50.4716 24.7858 49.7537 24.1244 48.8181 23.6244C47.8905 23.1243 46.8017 22.8743 45.5676 22.8743C44.1239 22.8743 42.8172 23.2372 41.6396 23.9712C40.4701 24.7052 39.5426 25.7537 38.857 27.1087C38.1795 28.4718 37.8326 30.0527 37.8326 31.8514C37.8326 33.65 38.1714 35.2389 38.857 36.6101C39.5345 37.9813 40.4621 39.0379 41.6396 39.7799C42.8092 40.522 44.1077 40.893 45.5354 40.893C46.7694 40.893 47.8583 40.643 48.7858 40.1429C49.7134 39.6428 50.4474 38.9814 50.9716 38.1668V40.651H56.3434V23.1243H50.9716V25.6085V25.6005ZM49.8586 35.0534C49.1165 35.8277 48.2132 36.2149 47.1404 36.2149C46.0677 36.2149 45.1643 35.8277 44.4223 35.0373C43.6803 34.2469 43.3092 33.1903 43.3092 31.8514C43.3092 30.5125 43.6803 29.4639 44.4223 28.6977C45.1643 27.9314 46.0677 27.5524 47.1404 27.5524C48.2132 27.5524 49.1165 27.9395 49.8586 28.7138C50.6006 29.4881 50.9716 30.5447 50.9716 31.8836C50.9716 33.2225 50.6006 34.2791 49.8586 35.0534Z" fill="#574F56"/>
<path id="Vector_24" d="M77.7013 22.963C77.7013 22.0435 77.911 21.4063 78.3304 21.0434C78.7498 20.6885 79.4676 20.5433 80.5001 20.6078V16.0507C80.3145 16.0265 80.0161 16.0184 79.6209 16.0184C77.2335 16.0184 75.4267 16.575 74.1846 17.6961C72.9506 18.8172 72.3295 20.4546 72.3295 22.6081V23.1082H67.2723V22.9549C67.2723 22.0354 67.482 21.3982 67.9015 21.0353C68.3209 20.6804 69.0387 20.5352 70.0711 20.5997V16.0426C69.8856 16.0184 69.5872 16.0104 69.192 16.0104C66.8045 16.0104 64.9978 16.5669 63.7557 17.688C62.5217 18.8092 61.9006 20.4465 61.9006 22.6V23.1001H59.7793L58.0613 27.5604H61.9006V40.6268H67.2723V27.5604H72.3295V40.6268H77.7013V27.5604H79.9355L81.7583 23.1001H77.7013V22.9469V22.963Z" fill="#574F56"/>
<path id="Vector_25" d="M97.4783 19.5109C96.2604 18.906 94.7763 18.5995 93.018 18.5995H84.3232V40.643H89.6949V32.7306H93.026C94.8247 32.7306 96.333 32.4079 97.5509 31.7546C98.7688 31.1094 99.6641 30.2544 100.253 29.1978C100.842 28.1412 101.132 26.9717 101.132 25.6973C101.132 24.3181 100.826 23.0921 100.221 22.0193C99.6157 20.9547 98.7043 20.1158 97.4864 19.5109H97.4783ZM94.9054 27.7379C94.4053 28.2218 93.639 28.4557 92.6147 28.4557H89.6949V22.9308H92.6147C93.639 22.9308 94.4053 23.1727 94.9054 23.6486C95.4054 24.1325 95.6555 24.8101 95.6555 25.6892C95.6555 26.5684 95.4054 27.2459 94.9054 27.7298V27.7379Z" fill="#574F56"/>
<path id="Vector_26" d="M108.77 17.4058H103.399V40.643H108.77V17.4058Z" fill="#574F56"/>
<path id="Vector_27" d="M124.982 25.6005C124.482 24.7858 123.764 24.1244 122.829 23.6244C121.901 23.1243 120.812 22.8743 119.578 22.8743C118.135 22.8743 116.828 23.2372 115.65 23.9712C114.481 24.7052 113.553 25.7537 112.868 27.1087C112.19 28.4718 111.843 30.0527 111.843 31.8514C111.843 33.65 112.182 35.2389 112.868 36.6101C113.545 37.9813 114.473 39.0379 115.65 39.7799C116.82 40.522 118.118 40.893 119.546 40.893C120.78 40.893 121.869 40.643 122.797 40.1429C123.724 39.6428 124.458 38.9814 124.982 38.1668V40.651H130.354V23.1243H124.982V25.6085V25.6005ZM123.861 35.0534C123.119 35.8277 122.216 36.2149 121.143 36.2149C120.07 36.2149 119.167 35.8277 118.425 35.0373C117.683 34.2469 117.312 33.1903 117.312 31.8514C117.312 30.5125 117.683 29.4639 118.425 28.6977C119.167 27.9314 120.07 27.5524 121.143 27.5524C122.216 27.5524 123.119 27.9395 123.861 28.7138C124.603 29.4881 124.974 30.5447 124.974 31.8836C124.974 33.2225 124.603 34.2791 123.861 35.0534Z" fill="#574F56"/>
<path id="Vector_28" d="M149.333 24.923C148.107 23.5922 146.469 22.9308 144.421 22.9308C143.267 22.9308 142.235 23.1566 141.315 23.6083C140.396 24.06 139.662 24.673 139.113 25.4473V23.1244H133.742V40.6511H139.113V31.1336C139.113 29.9641 139.42 29.0526 140.025 28.3993C140.63 27.7541 141.444 27.4234 142.477 27.4234C143.509 27.4234 144.316 27.746 144.929 28.3993C145.534 29.0446 145.84 29.956 145.84 31.1336V40.6511H151.18V30.4157C151.18 28.0928 150.567 26.2619 149.341 24.9391L149.333 24.923Z" fill="#574F56"/>
</g>
</g>
</g>
</g>
</g>
<defs>
<clipPath id="clip0_55_64146">
<rect width="214.636" height="56" fill="white" transform="translate(0.682129)"/>
</clipPath>
</defs>
</svg>
