<svg width="215" height="56" viewBox="0 0 215 56" fill="none" xmlns="http://www.w3.org/2000/svg">
<g id="ScaffPlan Logo" clip-path="url(#clip0_55_64234)">
<g id="Designer">
<g id="Group">
<g id="Group_2">
<path id="Vector" d="M186.68 49.1361C191.253 49.1361 195.48 50.6363 198.9 53.1689C200.134 52.5721 201.311 51.8784 202.432 51.1122C198.182 47.5068 192.681 45.321 186.68 45.321C180.679 45.321 175.146 47.5149 170.887 51.1445C172.009 51.9107 173.194 52.5963 174.42 53.1931C177.848 50.6444 182.091 49.128 186.672 49.128L186.68 49.1361Z" fill="white"/>
<path id="Vector_2" d="M200.021 37.828C203.578 39.3202 206.828 41.3931 209.667 43.9257C210.546 42.6594 211.321 41.3205 211.982 39.9171C208.304 38.7233 204.892 36.9247 201.868 34.634C201.368 35.7713 200.755 36.836 200.029 37.828H200.021Z" fill="white"/>
<path id="Vector_3" d="M159.241 22.1967C164.524 19.2124 168.097 13.5422 168.097 7.05742C168.097 7.04129 168.097 7.03322 168.097 7.01709C163.677 10.9289 160.499 16.2039 159.241 22.1967Z" fill="white"/>
<path id="Vector_4" d="M168.323 49.1765C171.517 46.3212 175.372 44.1919 179.639 43.0627C178.147 42.3691 176.775 41.4576 175.566 40.3768C171.863 41.7883 168.492 43.8693 165.613 46.4906C166.451 47.4504 167.355 48.3457 168.323 49.1845V49.1765Z" fill="white"/>
<path id="Vector_5" d="M178.276 7.05741C178.276 9.54164 177.945 11.9533 177.324 14.2439C178.647 13.3406 180.115 12.6308 181.671 12.1388C181.946 10.4853 182.083 8.78347 182.083 7.04935C182.083 4.79902 181.841 2.60516 181.389 0.483887C180.123 0.725857 178.897 1.04848 177.695 1.45177C178.066 3.25848 178.268 5.13778 178.268 7.04935L178.276 7.05741Z" fill="white"/>
<path id="Vector_6" d="M171.283 7.05753C171.283 15.5668 166.088 22.8824 158.708 26.0038C158.66 26.6652 158.636 27.3266 158.636 27.996C158.636 28.6655 158.66 29.3914 158.716 30.077C168.242 26.762 175.098 17.6962 175.098 7.05753C175.098 5.55731 174.953 4.09742 174.695 2.6698C173.46 3.25053 172.275 3.92805 171.146 4.67815C171.234 5.46052 171.291 6.25096 171.291 7.05753H171.283Z" fill="white"/>
<path id="Vector_7" d="M214.563 25.9634C207.231 22.8178 202.086 15.5264 202.086 7.05748C202.086 6.26705 202.134 5.49274 202.223 4.73457C201.093 3.97639 199.908 3.29888 198.674 2.71008C198.416 4.12158 198.279 5.5734 198.279 7.05748C198.279 17.6638 205.094 26.7055 214.571 30.0527C214.62 29.3752 214.644 28.6896 214.644 28.004C214.644 27.3185 214.62 26.6409 214.571 25.9715L214.563 25.9634Z" fill="white"/>
<path id="Vector_8" d="M195.318 54.6288C192.77 53.1689 189.826 52.322 186.688 52.322C183.551 52.322 180.574 53.1689 178.026 54.6449C180.744 55.5241 183.639 56 186.648 56C189.656 56 192.592 55.516 195.327 54.6288H195.318Z" fill="white"/>
<path id="Vector_9" d="M170.089 26.641C167.048 29.6495 163.306 31.9563 159.144 33.2952C159.386 34.5615 159.708 35.7955 160.12 36.9893C163.903 35.7955 167.379 33.9082 170.403 31.4723C170.162 30.3512 170.041 29.1897 170.041 28.0041C170.041 27.5443 170.065 27.0927 170.097 26.641H170.089Z" fill="white"/>
<path id="Vector_10" d="M171.436 34.6904C168.403 36.965 164.991 38.7555 161.313 39.9493C161.983 41.3607 162.765 42.7077 163.644 43.9821C166.476 41.4414 169.726 39.3685 173.275 37.8683C172.549 36.8924 171.936 35.8277 171.436 34.6985V34.6904Z" fill="white"/>
<path id="Vector_11" d="M205.005 49.1361C205.965 48.2972 206.869 47.4019 207.707 46.4421C204.82 43.8288 201.448 41.7479 197.746 40.3525C196.536 41.4414 195.165 42.3528 193.681 43.0465C197.948 44.1676 201.811 46.2889 205.005 49.1361Z" fill="white"/>
<path id="Vector_12" d="M184.986 11.4694C185.527 11.4129 186.075 11.3887 186.632 11.3887C187.221 11.3887 187.801 11.421 188.374 11.4775C188.188 10.0256 188.092 8.54962 188.092 7.05747C188.092 4.67003 188.334 2.33905 188.801 0.0806568C188.084 0.024197 187.366 0 186.64 0C185.914 0 185.252 0.024197 184.559 0.0806568C185.027 2.33905 185.269 4.67003 185.269 7.05747C185.269 8.54962 185.172 10.0256 184.986 11.4694Z" fill="white"/>
<path id="Vector_13" d="M205.263 7.09778C205.28 13.5261 208.804 19.1479 214.023 22.1403C212.765 16.212 209.627 10.9854 205.263 7.09778Z" fill="white"/>
<path id="Vector_14" d="M191.697 12.1792C193.27 12.6793 194.738 13.4133 196.061 14.3247C195.423 12.0098 195.085 9.574 195.085 7.05751C195.085 5.14594 195.278 3.28277 195.649 1.48413C194.455 1.08084 193.221 0.750149 191.963 0.508179C191.512 2.62139 191.27 4.81525 191.27 7.05751C191.27 8.7997 191.415 10.5096 191.689 12.1792H191.697Z" fill="white"/>
<path id="Vector_15" d="M203.182 26.5442C203.223 27.0201 203.247 27.504 203.247 27.996C203.247 29.1655 203.126 30.3028 202.892 31.4078C205.909 33.8598 209.385 35.7633 213.168 36.965C213.571 35.7713 213.894 34.5373 214.136 33.271C209.958 31.9159 206.215 29.5849 203.174 26.5442H203.182Z" fill="white"/>
</g>
<g id="Group_3">
<g id="Group_4">
<g id="Group_5">
<path id="Vector_16" d="M145.021 16.4459H143.9V16.204H146.408V16.4459H145.279V19.5512H145.013V16.4459H145.021Z" fill="white"/>
<path id="Vector_17" d="M145.473 19.7286H144.844V16.6234H143.722V16.0184H146.594V16.6234H145.473V19.7286Z" fill="white"/>
</g>
<g id="Group_6">
<path id="Vector_18" d="M150.03 18.0107C150.03 17.3574 150.03 16.7282 150.046 16.3975H150.03C149.893 16.8492 149.215 18.4946 148.796 19.5512H148.546C148.223 18.7366 147.521 16.9057 147.368 16.3975H147.36C147.384 16.7766 147.392 17.559 147.392 18.1317V19.5512H147.134V16.212H147.521C147.981 17.3574 148.554 18.8576 148.683 19.2367H148.691C148.764 18.9947 149.433 17.3251 149.901 16.212H150.28V19.5512H150.022V18.0187L150.03 18.0107Z" fill="white"/>
<path id="Vector_19" d="M150.473 19.7286H149.852V18.0106C149.852 17.8251 149.852 17.6235 149.852 17.4218C149.667 17.9058 149.433 18.4784 149.207 19.0188L148.925 19.7286H148.425L148.376 19.6157C148.175 19.0995 147.844 18.2284 147.578 17.5186C147.578 17.7283 147.578 17.938 147.578 18.1316V19.7367H146.957V16.0345H147.65L147.699 16.1475C148.038 16.9863 148.457 18.0752 148.699 18.7204C148.949 18.0832 149.401 16.9621 149.748 16.1475L149.796 16.0345H150.481V19.7367L150.473 19.7286Z" fill="white"/>
</g>
</g>
<g id="Group_7">
<path id="Vector_20" d="M13.3648 28.9316C12.4776 28.496 11.3161 28.0282 9.89659 27.5524C8.46896 27.0926 7.42849 26.6651 6.75904 26.2619C6.08959 25.8666 5.75083 25.3101 5.75083 24.6003C5.75083 23.9551 5.95247 23.455 6.34769 23.1082C6.74291 22.7614 7.26718 22.592 7.9205 22.592C8.6706 22.592 9.29166 22.7936 9.7756 23.205C10.2595 23.6163 10.5176 24.1728 10.558 24.8826H16.3653C16.2604 22.8097 15.4619 21.1966 13.9778 20.0352C12.4937 18.8737 10.5338 18.293 8.10601 18.293C5.67824 18.293 3.7828 18.8737 2.29872 20.0352C0.806568 21.1885 0.0645254 22.7936 0.0645254 24.8504C0.0645254 26.2296 0.387153 27.3507 1.04047 28.2138C1.69379 29.0768 2.46003 29.722 3.36339 30.1576C4.26674 30.5931 5.4282 31.0367 6.84776 31.4723C7.83177 31.7627 8.58995 32.0288 9.12228 32.2547C9.65462 32.4886 10.1063 32.7789 10.4693 33.1338C10.8322 33.4887 11.0177 33.9404 11.0177 34.4888C11.0177 35.1341 10.7838 35.6422 10.3241 36.0133C9.86432 36.3762 9.2352 36.5617 8.4367 36.5617C7.6382 36.5617 7.03327 36.344 6.54933 35.9165C6.06539 35.489 5.78309 34.8599 5.70244 34.0452H0C0.0403284 35.489 0.443612 36.723 1.20985 37.7474C1.97609 38.7717 2.99237 39.546 4.27481 40.0703C5.54919 40.5946 6.99294 40.8527 8.60608 40.8527C10.2192 40.8527 11.6952 40.5462 12.9051 39.9412C14.123 39.3363 15.0425 38.5217 15.6877 37.4893C16.3249 36.4649 16.6476 35.3196 16.6476 34.0694C16.6476 32.7547 16.3249 31.6739 15.6716 30.8351C15.0264 29.9963 14.2521 29.3591 13.3648 28.9235V28.9316Z" fill="white"/>
<path id="Vector_21" d="M27.1411 27.4556C28.5203 27.4556 29.4559 28.125 29.9318 29.4639H35.6504C35.1906 27.3668 34.2227 25.7456 32.7467 24.6003C31.2707 23.4469 29.4317 22.8743 27.2379 22.8743C25.5199 22.8743 23.9955 23.2372 22.6727 23.9712C21.3419 24.7052 20.3095 25.7537 19.5674 27.1087C18.8254 28.4718 18.4543 30.0608 18.4543 31.8836C18.4543 33.7065 18.8254 35.2954 19.5674 36.6585C20.3095 38.0216 21.3499 39.0701 22.6727 39.7961C24.0035 40.53 25.5279 40.893 27.2379 40.893C29.4156 40.893 31.2465 40.3042 32.7306 39.1347C34.2147 37.9651 35.1906 36.352 35.6504 34.3033H29.9318C29.4479 35.6422 28.5203 36.3117 27.1411 36.3117C26.1571 36.3117 25.3747 35.9326 24.7859 35.1664C24.1971 34.4001 23.9067 33.3113 23.9067 31.8836C23.9067 30.456 24.1971 29.3671 24.7859 28.6009C25.3747 27.8347 26.1571 27.4556 27.1411 27.4556Z" fill="white"/>
<path id="Vector_22" d="M50.2894 25.6005C49.7893 24.7858 49.0715 24.1244 48.1358 23.6244C47.2083 23.1243 46.1194 22.8743 44.8854 22.8743C43.4416 22.8743 42.135 23.2372 40.9574 23.9712C39.7879 24.7052 38.8603 25.7537 38.1747 27.1087C37.4972 28.4718 37.1504 30.0527 37.1504 31.8514C37.1504 33.65 37.4891 35.2389 38.1747 36.6101C38.8522 37.9813 39.7798 39.0379 40.9574 39.7799C42.1269 40.522 43.4255 40.893 44.8531 40.893C46.0872 40.893 47.176 40.643 48.1036 40.1429C49.0311 39.6428 49.7651 38.9814 50.2894 38.1668V40.651H55.6611V23.1243H50.2894V25.6085V25.6005ZM49.1763 35.0534C48.4343 35.8277 47.5309 36.2149 46.4582 36.2149C45.3854 36.2149 44.4821 35.8277 43.74 35.0373C42.998 34.2469 42.627 33.1903 42.627 31.8514C42.627 30.5125 42.998 29.4639 43.74 28.6977C44.4821 27.9314 45.3854 27.5524 46.4582 27.5524C47.5309 27.5524 48.4343 27.9395 49.1763 28.7138C49.9184 29.4881 50.2894 30.5447 50.2894 31.8836C50.2894 33.2225 49.9184 34.2791 49.1763 35.0534Z" fill="white"/>
<path id="Vector_23" d="M77.0191 22.963C77.0191 22.0435 77.2288 21.4063 77.6482 21.0434C78.0676 20.6885 78.7855 20.5433 79.8179 20.6078V16.0507C79.6324 16.0265 79.3339 16.0184 78.9387 16.0184C76.5513 16.0184 74.7446 16.575 73.5024 17.6961C72.2684 18.8172 71.6473 20.4546 71.6473 22.6081V23.1082H66.5902V22.9549C66.5902 22.0354 66.7999 21.3982 67.2193 21.0353C67.6387 20.6804 68.3565 20.5352 69.3889 20.5997V16.0426C69.2034 16.0184 68.905 16.0104 68.5098 16.0104C66.1223 16.0104 64.3156 16.5669 63.0735 17.688C61.8395 18.8092 61.2184 20.4465 61.2184 22.6V23.1001H59.0971L57.3792 27.5604H61.2184V40.6268H66.5902V27.5604H71.6473V40.6268H77.0191V27.5604H79.2533L81.0761 23.1001H77.0191V22.9469V22.963Z" fill="white"/>
<path id="Vector_24" d="M96.7962 19.5109C95.5783 18.906 94.0942 18.5995 92.3359 18.5995H83.6411V40.643H89.0129V32.7306H92.344C94.1426 32.7306 95.6509 32.4079 96.8688 31.7546C98.0867 31.1094 98.982 30.2544 99.5708 29.1978C100.16 28.1412 100.45 26.9717 100.45 25.6973C100.45 24.3181 100.143 23.0921 99.5386 22.0193C98.9336 20.9547 98.0222 20.1158 96.8043 19.5109H96.7962ZM94.2233 27.7379C93.7232 28.2218 92.957 28.4557 91.9326 28.4557H89.0129V22.9308H91.9326C92.957 22.9308 93.7232 23.1727 94.2233 23.6486C94.7234 24.1325 94.9734 24.8101 94.9734 25.6892C94.9734 26.5684 94.7234 27.2459 94.2233 27.7298V27.7379Z" fill="white"/>
<path id="Vector_25" d="M108.088 17.4058H102.716V40.643H108.088V17.4058Z" fill="white"/>
<path id="Vector_26" d="M124.3 25.6005C123.8 24.7858 123.082 24.1244 122.147 23.6244C121.219 23.1243 120.13 22.8743 118.896 22.8743C117.452 22.8743 116.146 23.2372 114.968 23.9712C113.799 24.7052 112.871 25.7537 112.185 27.1087C111.508 28.4718 111.161 30.0527 111.161 31.8514C111.161 33.65 111.5 35.2389 112.185 36.6101C112.863 37.9813 113.791 39.0379 114.968 39.7799C116.138 40.522 117.436 40.893 118.864 40.893C120.098 40.893 121.187 40.643 122.114 40.1429C123.042 39.6428 123.776 38.9814 124.3 38.1668V40.651H129.672V23.1243H124.3V25.6085V25.6005ZM123.179 35.0534C122.437 35.8277 121.534 36.2149 120.461 36.2149C119.388 36.2149 118.485 35.8277 117.743 35.0373C117.001 34.2469 116.63 33.1903 116.63 31.8514C116.63 30.5125 117.001 29.4639 117.743 28.6977C118.485 27.9314 119.388 27.5524 120.461 27.5524C121.534 27.5524 122.437 27.9395 123.179 28.7138C123.921 29.4881 124.292 30.5447 124.292 31.8836C124.292 33.2225 123.921 34.2791 123.179 35.0534Z" fill="white"/>
<path id="Vector_27" d="M148.651 24.923C147.425 23.5922 145.787 22.9308 143.739 22.9308C142.585 22.9308 141.553 23.1566 140.633 23.6083C139.714 24.06 138.98 24.673 138.431 25.4473V23.1244H133.06V40.6511H138.431V31.1336C138.431 29.9641 138.738 29.0526 139.343 28.3993C139.948 27.7541 140.762 27.4234 141.795 27.4234C142.827 27.4234 143.634 27.746 144.247 28.3993C144.852 29.0446 145.158 29.956 145.158 31.1336V40.6511H150.498V30.4157C150.498 28.0928 149.885 26.2619 148.659 24.9391L148.651 24.923Z" fill="white"/>
</g>
</g>
</g>
</g>
</g>
<defs>
<clipPath id="clip0_55_64234">
<rect width="214.636" height="56" fill="white"/>
</clipPath>
</defs>
</svg>
